<?xml version="1.0" encoding="UTF-8" standalone="no"?>
<!DOCTYPE svg PUBLIC "-//W3C//DTD SVG 1.1//EN" "http://www.w3.org/Graphics/SVG/1.1/DTD/svg11.dtd">
<svg width="100%" height="100%" viewBox="0 0 2048 1024" version="1.1" xmlns="http://www.w3.org/2000/svg" xmlns:xlink="http://www.w3.org/1999/xlink" xml:space="preserve" xmlns:serif="http://www.serif.com/" style="fill-rule:evenodd;clip-rule:evenodd;stroke-linejoin:round;stroke-miterlimit:2;">
    <g id="Background" transform="matrix(2.84444,0,0,2.84444,512,0)">
        <g id="Path-3" serif:id="Path 3" transform="matrix(1.13233,0,0,1.13233,-205.058,-27.3289)">
            <path d="M43.9,39C57.05,38.183 104.817,38 118,39C120.596,39.197 122.773,42.407 123,45C123.833,54.5 123,96 123,96L118.5,96C114.4,96 114,95.8 114,93.5C114,92.1 113.4,89.5 112.7,87.7C111.9,86 109.7,83 107.7,81.2C105.6,79.4 102.4,77.7 100.3,77.4C98.2,77 94.9,76.9 93,77.2C91.1,77.4 88.1,78.7 86.3,80.1C84.6,81.4 82.6,83.8 80.7,88.5L79.1,85.1C78.2,83.2 75.7,80.7 73.5,79.4C71,77.9 67.9,77 65.3,77C62.9,77 59.5,77.6 57.8,78.3C56,79.1 53,81.3 51.3,83.3C48.9,85.9 47.9,88.3 47,96L39,96C39,96 38.283,53.4 39.1,43.9C39.296,41.622 41.618,39.142 43.9,39ZM57.5,55.4C54.9,58.1 54.2,59.7 54.1,62.9C54,66.2 54.6,67.6 57,70C59.5,72.5 60.8,73 65,73C69.3,73 70.3,72.6 72.5,70C73.9,68.3 75.3,66 75.6,64.7C75.9,63.5 75.4,60.8 74.6,58.7C73.6,56.5 71.8,54.4 70,53.5C68.4,52.7 65.6,52 63.9,52C61.7,52 59.9,53 57.5,55.4ZM91.3,53.4C90.2,54.1 88.5,55.8 87.6,57.1C86.8,58.4 86.1,61.2 86,63.2C86,66.1 86.7,67.7 89,70C91.5,72.5 92.8,73 96.6,73C100.3,73 101.7,72.5 104.1,70C106.3,67.7 107,66.1 107,63C107,60.8 106.6,58.1 106,57C105.5,55.9 103.7,54.3 102,53.5C100.4,52.7 97.8,52 96.3,52C94.7,52.1 92.5,52.7 91.3,53.4ZM176.4,39C211.2,39 212.6,39.1 214.8,41C216,42.1 217.3,44.5 217.6,46.3C217.8,48.1 218,59.9 217.5,95.5L214.5,95.8C212.9,96 210.2,96.7 208.6,97.3C206.3,98.2 204.9,100.1 202.7,105C201.1,108.6 199.3,111.9 198.6,112.3C198,112.7 187.8,113 176,113.1C156.6,113.1 154.4,112.9 152.9,111.3C152.1,110.3 150.6,107.4 149.7,104.8C148.7,102.1 146.8,99.2 145.3,98C143.6,96.8 141,96 135,96C135,96 133.75,45.316 135.994,41.624C137.642,38.911 141.5,39 176.4,39ZM173,52.5C173,55.8 172.7,56.1 168.8,57C166.4,57.6 163.3,59.1 161.8,60.5C159.5,62.5 159,63.9 159,67.5C159,71.1 159.6,72.6 161.8,74.9C163.6,76.7 166,77.9 168.8,78.4L173,79C173,87.3 172.6,89 171.8,89C171.1,89 168.3,88.2 165.7,87.3C160.9,85.5 160.8,85.5 159.4,87.5C158.6,88.6 158,90.1 158,90.7C158,91.4 159,92.5 160.3,93.2C161.5,93.8 164.8,94.9 167.5,95.5C172.1,96.6 172.5,96.9 173,100.1C173.4,102.9 173.9,103.5 176,103.5C178.1,103.5 178.6,102.9 179,100C179.4,97.2 180,96.5 182.5,96C184.2,95.6 186.5,94.8 187.8,94.2C189,93.5 190.7,92 191.5,90.7C192.3,89.5 193,87 193,85.2C193,83.5 192.5,81 192,79.7C191.4,78.5 190,76.9 188.7,76.2C187.5,75.5 184.9,74.6 183,74.2C179.6,73.5 179.5,73.2 179.3,68.7L179,64C188.4,64.9 189.2,64.7 190.5,62.7C191.3,61.5 191.6,60.1 191.2,59.7C190.8,59.3 188,58.3 185,57.6C179.6,56.4 179.5,56.3 179.4,52.7C179.3,49.3 179,49 176.1,49C173.2,49 173,49.2 173,52.5ZM234.9,39C248.05,38.167 295.817,38.167 309,39C311.352,39.149 313.794,41.652 314,44C314.833,53.5 314,96 314,96L310.3,96C308,96 305.4,96.8 303.8,98C302.2,99.2 300.3,102.1 299.3,104.8C298.4,107.4 297,110.3 296.1,111.3C294.7,112.9 292.3,113.1 272,113.1C251.7,113.1 249.3,112.9 247.8,111.3C246.9,110.3 245.3,107.3 244.3,104.6C243.3,101.9 241.4,98.9 240,97.8C238.6,96.8 235.9,96 230,96C230,96 229.283,53.5 230.1,44C230.298,41.698 232.594,39.146 234.9,39ZM260.4,51.1C258.8,52.8 254.8,55.5 251.5,57C248,58.5 245,60.7 244.2,62.1C243.3,63.8 243,68.8 243.2,79.5L243.5,94.5L248.5,94.5L249.5,65.6C255.7,62.1 258.1,61 258.8,61C259.4,61 261,62.8 262.3,65C263.6,67.4 265.2,69 266.3,69C267.6,69 267.9,69.6 267.6,71.7C267.4,73.3 266.5,77.7 265.7,81.5C264.8,85.3 263.9,89.2 263.6,90C263.3,90.9 264.8,93.5 267.4,96.5L271.7,101.5C277,95.5 278.8,93.1 279.3,92.4C279.7,91.6 279.1,87.1 278,82.2C276.8,77.4 275.7,72.5 275.5,71.2C275.1,69.5 275.5,68.9 277.3,68.7C278.7,68.6 280.2,67.2 281.5,64.7C283.2,61.5 283.9,61 286,61.5C287.4,61.9 289.9,62.9 291.5,63.9L294.5,65.6L295.5,94.5L300.5,94.5L301,63.5C296.7,59.2 293.5,57.3 291,56.4C288.5,55.6 285.2,53.4 283.5,51.5C280.5,48.1 280.4,48.1 271.9,48C263.6,48 263.3,48.1 260.4,51.1ZM205.8,221.7C207.2,219.1 207.7,218.9 211.9,219.4C214.4,219.6 226.6,221.7 239,224C251.4,226.3 266.7,229.1 273,230.2C279.3,231.4 285.1,232.9 285.9,233.5C287,234.4 285.5,240 278,264.6C273,281.1 267.8,297.7 266.5,301.6C265.3,305.4 262.9,312.6 261.4,317.5C259.8,322.4 257.9,326.9 257.1,327.5C256.1,328.3 251.9,327.9 240.1,325.8C231.6,324.2 219.8,322.1 214,321C208.2,320 198.6,318.2 192.5,317.1C186.5,316 181.2,314.5 180.8,313.8C180.4,313.1 180.3,311.9 180.5,311.1C180.7,310.3 182.3,305 184,299.3C186.8,289.9 187.4,288.7 192,284.3C195.1,281.4 197.3,278.4 197.7,276.6C198,274.9 197.7,272.5 197,271.1C196.2,269.7 194.8,267.9 193.7,267.1C191.8,265.6 191.9,265.3 196,252.1C198.3,244.7 201.1,235.4 202.2,231.6C203.3,227.7 204.9,223.3 205.8,221.7ZM228,233.4C226.1,234.1 223.3,236.3 221.8,238.4C220.3,240.4 219,242.9 219,244C219,245.5 220,246.3 223.3,247.1C227.3,248.1 227.6,248 230.3,245.1C232.4,242.7 233.8,242 236.8,242C238.8,242 241.5,242.7 242.8,243.5C244.4,244.6 245,246 245,248.5C245,251.3 244.4,252.5 241.8,254.3C240,255.6 237.2,257.2 235.5,257.8C233.9,258.5 231.3,260.2 229.8,261.7C228.4,263.3 226.7,266.2 226.1,268.3C225.2,271.1 225.3,272.1 226.3,272.4C226.9,272.6 229,273.1 230.8,273.4C233.7,273.9 234.1,273.7 235.4,270.8C236.5,268.4 238.6,266.6 243.2,264.3C246.7,262.5 250.9,259.7 252.5,258C255.1,255.3 255.5,254 255.8,248.4C256,242.4 255.8,241.8 252.8,238.6C250.7,236.5 247.5,234.7 244,233.6C241,232.7 236.9,232 235,232C233.1,232.1 229.9,232.7 228,233.4ZM222.5,279.8C221.5,280.8 221.016,282.961 221.116,283.761C221.216,284.561 221.214,285.589 222.5,286.8C223.651,287.884 225.471,288.543 226.971,288.543C228.371,288.543 229.9,288 231,286.8C232.1,285.5 233,283.7 233,282.8C233,281.8 232.3,280.3 231.5,279.5C230.7,278.7 228.7,278 227.1,278C225.6,278 223.5,278.8 222.5,279.8ZM65,265.6C67.5,264.8 71.8,264.2 74.5,264.2C77.3,264.1 81.8,264.7 84.5,265.5C87.3,266.3 91.5,268.7 93.9,270.8C96.3,272.9 99.3,276.4 100.6,278.6C101.9,280.8 103.4,285.1 104.1,288.1C105,292.3 105,294.9 104.1,299.1C103.4,302.1 101.8,306.3 100.4,308.3C99.1,310.4 96.8,313.3 95.3,314.7C93.8,316.1 90,318.5 87,319.9C82.9,321.9 79.9,322.5 75,322.5C70.2,322.5 67.1,321.8 63,320C60,318.6 55.7,315.7 53.6,313.5C51.4,311.4 48.5,307.1 47.2,304.1C45.1,299.5 44.8,297.5 45.2,291.6C45.5,286.5 46.3,283.4 48.2,280.1C49.6,277.6 52.9,273.7 55.6,271.3C58.3,268.9 62.5,266.3 65,265.6ZM72.6,271.5C72.3,272.3 72,275.7 72,279C72,283.9 71.6,285.5 69.5,288C68.1,289.6 67,291.9 67,293C67,294.1 68.1,296.1 69.5,297.5C70.9,298.9 73.1,300 74.5,300C75.9,300 77.9,299.6 79,299C80.1,298.4 81.5,296.9 82,295.5C82.6,293.9 82.7,292 82,290.3C81.5,288.7 80.4,287.2 79.5,286.8C78.4,286.2 78,284.4 78,279.5C78,275.9 77.8,272.3 77.5,271.5C77.2,270.7 76.1,270 75.1,270C74,270 72.9,270.7 72.6,271.5Z" style="fill:rgb(250,249,250);"/>
        </g>
        <g id="Path-4" serif:id="Path 4" transform="matrix(1.13233,0,0,1.13233,-205.058,-27.3289)">
            <path d="M40.2,102C43.1,102 46.3,102.5 47.2,103.2C48.1,103.9 50,107.1 51.4,110.3C53.2,114.3 54.9,116.5 57,117.5C59.4,118.7 64.3,119 80.8,119C95.2,119 102.3,118.6 104,117.7C105.5,117 107.8,113.9 109.7,110C111.5,106.4 113.5,103.2 114.2,102.8C114.9,102.4 117.9,102 126,102L125.4,106.3C125.1,108.6 123.7,115 122.4,120.5C120.9,126.5 119.2,131 118.2,131.8C116.9,132.7 108,133 80.5,133C47.2,133.1 44.4,132.9 42.8,131.3C41.9,130.3 40.3,125.9 39.2,121.5C38.1,117.1 36.9,111.7 36.5,109.5C36.2,107.3 35.7,104.7 35.4,103.8C34.9,102.2 35.5,102 40.2,102ZM131.4,102L135.2,102C137.3,102 139.8,102.3 140.7,102.8C141.6,103.2 143.5,106 144.9,109.1C146.3,112.2 148.7,115.7 150.3,116.9C152.9,118.9 154.1,119 176.3,119C195.3,119 199.9,118.7 201.8,117.5C203,116.7 205.4,113.2 207.1,109.8C208.8,106.3 210.8,103.2 211.4,102.8C212,102.4 214.4,102 221,102L220.4,105.8C220.1,107.8 219.2,112.7 218.4,116.5C217.6,120.4 216.7,124.6 216.4,126C216.2,127.4 215.1,129.5 212,133L176,133C142,133 139.9,132.9 138.3,131.1C137.3,130.1 135.7,125.7 134.7,121.4C133.7,117 132.6,110.9 132.2,107.8L131.4,102ZM230.5,102C232.4,102 234.7,102.3 235.6,102.7C236.5,103.1 238.5,106.3 240.1,109.7C241.7,113.1 244,116.6 245.2,117.5C247.1,118.7 251.8,119 271.7,119C293.2,119 296.3,118.7 298.6,117.2C300,116.2 302.6,112.8 304.2,109.5C305.9,106.2 307.7,103.1 308.4,102.7C309,102.3 311.2,102 313.2,102C315.3,102 317,102.2 317,102.5C317,102.7 316.3,106 315.5,109.7C314.6,113.4 313.2,119.4 312.3,123C311.4,126.5 310,130.2 309.1,131.2C307.8,132.6 305.1,133.1 284.5,134.3C284.5,134.3 268.6,134.4 252.3,133.6C241,133 235,132.3 234,131.5C233.2,130.7 232,128 231.3,125.3C230.7,122.6 229.5,117.8 228.6,114.5C227.8,111.2 227.1,107 227,105.2C227,102.1 227.2,102 230.5,102ZM66,249L83,248.9L83,252.4C83,254.4 82.7,256.1 82.2,256.3C81.8,256.5 78,256.4 66,255.4L66,249Z" style="fill:rgb(77,93,105);"/>
        </g>
        <g id="Path-2" serif:id="Path 2" transform="matrix(1.13233,0,0,1.13233,-205.058,-27.3289)">
            <path d="M270.562,128.275C269.562,129.275 269.244,130.712 268.8,131.8C268.533,132.455 266.8,138.5 264.1,145.2C261.4,152 257.8,161.1 256,165.5C254.3,169.9 253.1,174.1 253.4,174.7C253.8,175.7 256,175.8 261.8,175.4L269.5,174.8C268.5,180.8 266.9,185.9 265.2,190C263.4,194.1 260.1,200.2 257.6,203.5C255.2,206.8 250.7,211.4 247.6,213.8L242,218C250.1,219.6 256.6,220.7 261.5,221.5C266.5,222.3 270.6,222.8 270.6,222.7C270.7,222.6 275.1,223.2 275.3,223.5C275.4,223.7 278,224.4 281,224.9C284.1,225.5 286.9,225.6 287.5,225.1C288.1,224.6 290.4,220.5 292.7,215.9C295,211.3 297.8,203.7 299,199C300.3,194.3 301.5,186 301.8,180.5C302.1,174.8 302.7,170.2 303.4,169.8C304,169.4 306.5,168.8 309,168.5C311.5,168.1 314.1,167.3 314.8,166.7C315.5,166 316.182,165.813 315.724,164.404C315.037,162.29 307.9,156.8 297.8,147.5C287.7,138.1 278.4,129.6 277,128.7C275.6,127.8 274.641,126.993 273.4,127C272.235,127.007 271.562,127.275 270.562,128.275Z" style="fill:rgb(130,177,203);fill-rule:nonzero;"/>
        </g>
        <g id="Path-1" serif:id="Path 1" transform="matrix(1.13233,0,0,1.13233,-205.058,-27.3289)">
            <path d="M130.5,149.5C137.5,149.7 142.9,150.6 148.5,152.4C152.9,153.8 159.4,156.6 162.9,158.7C166.5,160.8 172.6,165.7 176.4,169.6C180.7,173.9 185,179.4 187.2,183.6C189.2,187.4 191.8,194.1 193,198.5C194.2,203.4 195,209.7 195,214.8C195,219.3 194.4,226 193.6,229.7C192.8,233.5 190.8,239.4 189.2,243C187.6,246.6 184.2,252.3 181.6,255.7C179.1,259.2 174.4,264.1 171.2,266.6C168.1,269.1 163,272.4 160,274C157,275.5 151.1,277.8 147,279.1C141.2,280.9 137.2,281.5 129,281.5C123.2,281.5 116.2,280.9 113.5,280.2C109.7,279.3 108.1,278.2 106.7,276C105.2,273.3 105.2,272.8 106.5,271.2C107.3,270.3 108,268.7 108,267.7C108,266.8 106.9,264.6 105.5,263C104.1,261.4 102.4,260 101.7,260C101.1,259.9 99.4,260.8 98,261.8C95.5,263.6 95.4,263.6 91.9,261.6C88.5,259.6 88.3,259.3 88.8,255.5C89,253.3 89,250.3 88.6,248.7C88.3,247.2 87.3,245.3 86.5,244.5C85.4,243.4 82.7,243 67,243L64.4,234.7C62.2,227.8 61.7,224.6 61.7,215C61.7,205.3 62.1,202.4 64.2,196C65.6,191.9 68.5,185.6 70.6,182C72.7,178.4 76.9,172.9 79.9,169.7C83,166.5 88,162.2 91,160.2C94,158.2 99.2,155.5 102.5,154.1C105.8,152.8 111.2,151.1 114.5,150.4C118.1,149.6 124.4,149.2 130.5,149.5ZM141.6,168C141.2,169.1 141.6,171 142.4,172.3C143.2,173.5 145.6,175.7 147.7,177.2C149.8,178.7 153.5,180.6 156,181.5C158.5,182.3 161.9,183.1 163.5,183.1C165.2,183.1 167.2,182.4 168,181.5C169.1,180.2 169.2,179.4 168.4,178.2C167.7,177.2 165.3,176.3 162.4,175.9C159.7,175.6 155.9,174.4 154,173.3C152.1,172.1 149.5,170 148.3,168.6C147,167.2 145.1,166 144.1,166C143,166 141.9,166.9 141.6,168ZM111.4,167.8C110.4,168 108.5,171.4 106.6,173.2C104.6,175.2 101,177.2 97.4,178.3C94.2,179.3 90.9,180.4 90.3,180.6C89.6,180.8 89.1,181.8 89.3,182.7C89.4,183.7 90.6,185 92,185.6C94.1,186.6 95.5,186.4 100.6,184.7C103.9,183.5 108,181.4 109.6,180C111.3,178.6 113.5,176.2 114.6,174.5C115.6,172.9 116.6,171 116.8,170.3C116.9,169.6 116.2,168.6 115.1,168.2C114.1,167.8 112.4,167.6 111.4,167.8ZM126,233.7C123.5,234.6 119.9,236.5 118,238C116.1,239.5 113.5,242.7 112.3,245.1C111,247.5 110,251 110,252.8C110,255 110.8,256.8 112.8,258.7C114.8,260.6 116.2,261.2 118,260.7C119.4,260.4 122.8,258.8 125.5,257C128.3,255.3 132.5,253.6 135,253.3C138.6,252.9 140.7,253.3 145.5,255.5C149.3,257.2 152.3,258 153.8,257.6C155,257.3 156.8,255.8 157.7,254.3C158.9,252.3 159.1,250.5 158.7,248C158.3,246.1 156.9,243 155.5,241.3C154.1,239.5 150.6,236.8 147.8,235.4C144.3,233.6 140.4,232.6 136.5,232.4C132.7,232.2 128.9,232.6 126,233.7ZM192.5,157C193.3,157 194.2,157.8 194.5,158.7C194.8,159.7 193.9,161.9 192.5,163.7C191.1,165.5 189.7,167 189.2,167C188.8,167.1 187.9,166.4 187.2,165.5C186.2,164.3 186.4,163.4 188.5,160.5C189.9,158.6 191.7,157 192.5,157ZM211.377,161.627C211.677,161.627 213.1,161.5 213.8,162.2C214.5,162.9 214.308,164.169 214.308,164.569C214.308,165.069 211.4,168.2 207,172C202.2,176.2 198.4,178.8 197.5,178.5C196.7,178.2 195.9,177.2 195.8,176.2C195.6,175 198.3,172.1 203.5,167.7C207.9,164 211.077,161.627 211.377,161.627ZM285.9,169C286.4,169 286.6,170.7 286.3,172.7C286,174.8 285,180.2 283.9,184.7C282.9,189.3 282,193.2 282,193.5C282,193.8 284.9,194 288.5,194C292.2,194 295,194.4 295,195C295,195.6 289.8,203 283.5,211.5C277.2,220 271.6,227 271,227C270.4,227 270,226.7 270,226.2C270,225.8 270.9,221.4 272,216.5C273.1,211.6 274,207.1 274,206.5C274,205.9 271.5,205.6 268,205.7C264.7,205.9 262.1,205.8 262.1,205.5C262.2,205.2 266.7,197.9 272.1,189.2C277.5,180.6 282.6,172.5 283.5,171.2C284.4,170 285.5,169 285.9,169ZM216,185.3C217.8,185.4 218.5,186.1 218.5,187.5C218.5,188.9 217.4,189.9 214.5,190.8C212.3,191.5 208.7,192.2 206.5,192.3C203.1,192.5 202.5,192.2 202.5,190.5C202.5,189 203.8,188.2 208,186.8C211,185.9 214.6,185.2 216,185.3ZM186.5,271.9C188.2,271.9 190,272.5 190.7,273.2C191.6,274.2 191.5,275.2 190,277.5C189,279.1 187,281.2 185.6,282C184.2,282.8 182.6,284.4 182.2,285.5C181.7,286.6 180,291.8 178.5,297C176.9,302.2 175.3,306.9 174.9,307.5C174.4,308.1 173.2,307.9 171.5,306.8C170.1,305.8 168.3,303.5 167.4,301.8C166.5,300 165.8,296.5 165.8,294C165.8,291.5 166.4,288.1 167,286.5C167.6,284.9 169.2,282.1 170.4,280.5C171.6,278.9 175.1,276.3 178.1,274.7C181.1,273.2 184.8,272 186.5,271.9Z" style="fill:rgb(253,230,3);"/>
        </g>
        <g id="Path-6" serif:id="Path 6" transform="matrix(1.13233,0,0,1.13233,-205.058,-27.3289)">
            <path d="M196.4,292.2C195.4,292.7 194.7,293.8 194.8,294.5C194.9,295.3 196,296.4 197.3,297C198.5,297.5 209.2,299.6 221,301.6C232.8,303.6 244.8,305.5 247.5,305.7C251.2,306.1 252.7,305.9 253.2,304.9C253.5,304.1 253.5,302.9 253.2,302.2C252.8,301.4 244.7,299.6 232.5,297.5C221.5,295.5 209.3,293.4 205.3,292.6C200.9,291.8 197.4,291.7 196.4,292.2ZM192.5,303.7C192,304 191.7,304.9 191.8,305.7C191.9,306.4 193,307.4 194.3,307.9C195.5,308.4 202.6,309.8 210,311C217.4,312.2 224.1,312.9 224.8,312.6C225.4,312.3 226,311.3 226,310.5C226,309.7 225.4,308.7 224.8,308.3C224.1,308 217.4,306.6 210,305.3C202.6,304.1 195.8,303 194.9,303C194,303 193,303.3 192.5,303.7Z" style="fill:rgb(130,177,203);fill-rule:nonzero;"/>
        </g>
        <g id="Path-7" serif:id="Path 7" transform="matrix(1.13233,0,0,1.13233,-205.058,-27.3289)">
            <path d="M146,189.2C142.9,190.9 140.9,192.8 139.2,196C137.2,199.7 136.9,201.4 137.4,206C137.7,209.3 138.9,212.8 140.2,214.8C141.5,216.6 144.3,218.9 146.5,220C148.7,221.1 151.8,222 153.5,222C155.2,222 158.3,220.9 160.5,219.6C162.9,218.2 165.3,215.7 166.4,213.4C167.6,211 168.4,207.5 168.3,204.5C168.3,201.8 167.6,198.2 166.7,196.5C165.9,194.9 164.1,192.5 162.8,191.4C161.6,190.2 158.9,188.8 157,188.1C155.1,187.5 152.8,187 152,187C151.2,187 148.5,188 146,189.2ZM102,191.3C98.9,192.9 96.8,195 95.1,198.1C93.5,200.9 92.7,204.1 92.7,207C92.7,209.5 93.6,213.3 94.6,215.4C95.7,217.6 98.1,220.5 100,221.9C101.9,223.3 105.3,224.6 107.5,224.8C110.2,225.1 112.8,224.6 115.8,223.1C118.7,221.6 120.8,219.6 122.7,216.3C124.9,212.3 125.3,210.6 124.9,205.9C124.6,201.7 123.8,199.5 121.5,196.5C119.8,194.4 116.7,191.8 114.5,190.8C112.3,189.8 109.6,189 108.5,189C107.3,189 104.4,190 102,191.3Z" style="fill:rgb(250,249,250);fill-rule:nonzero;"/>
        </g>
        <g id="Path-9" serif:id="Path 9" transform="matrix(1.13233,0,0,1.13233,-205.058,-27.3289)">
            <path d="M146,202.6C144.8,204.1 143.853,205.43 143.9,207.4C143.947,209.382 144.7,210.6 145.7,211.9C146.9,213.4 148.5,214.2 150.5,214.2C152.5,214.2 154.1,213.4 155.3,211.9C156.3,210.6 157.1,208.5 157,207.3C157,206 155.9,203.9 154.5,202.5C153.1,201.1 152.11,199.999 150.1,200C148.193,200.001 147.2,201.2 146,202.6ZM107.4,206.3C106.517,208.155 106.429,210.945 107.4,213.3C108.373,215.659 110.336,217 112.5,217C115,217 116.618,215.931 117.5,214.8C118.22,213.876 119,211.4 119,210C119,208.6 118.3,206.5 117.5,205.3C116.4,203.6 115,203.039 112.5,203C109.998,202.961 108.313,204.383 107.4,206.3Z" style="fill:rgb(39,52,62);fill-rule:nonzero;"/>
        </g>
        <g id="Path-10" serif:id="Path 10" transform="matrix(1.13233,0,0,1.13233,-205.058,-27.3289)">
            <path d="M266.7,55L271.5,60.8C275,57.5 276,56.2 276,55.8C276,55.3 273.9,55 271.4,55L266.7,55ZM168.6,65.1C167.5,65.7 166.7,66.9 166.8,67.8C166.9,68.8 168.1,70.1 169.5,70.8C172,72 172,72 172,68C172,65.8 171.7,64 171.3,64C170.8,64.1 169.6,64.5 168.6,65.1ZM180,85C180,87.6 180.5,89 181.3,89C182,89 183.2,88.5 183.8,87.8C184.5,87.1 185,85.7 185,84.8C185,83.8 184.1,82.6 183,82C181.9,81.5 180.8,81 180.5,81C180.2,81 180,82.8 180,85Z" style="fill:rgb(250,249,250);fill-rule:nonzero;"/>
        </g>
        <g transform="matrix(0.290805,0,0,0.290805,-139.831,47.8089)">
            <g transform="matrix(212.771,0,0,212.771,1147.16,361.244)">
                <path d="M0.194,-0.268L0.194,-0L0.097,-0L0.097,-0.717L0.309,-0.717C0.354,-0.717 0.393,-0.711 0.427,-0.701C0.46,-0.69 0.488,-0.675 0.51,-0.656C0.532,-0.637 0.548,-0.613 0.559,-0.586C0.57,-0.559 0.576,-0.528 0.576,-0.495C0.576,-0.461 0.57,-0.431 0.558,-0.403C0.546,-0.375 0.529,-0.352 0.507,-0.332C0.484,-0.312 0.456,-0.296 0.423,-0.285C0.39,-0.274 0.352,-0.268 0.309,-0.268L0.194,-0.268ZM0.194,-0.345L0.309,-0.345C0.336,-0.345 0.361,-0.349 0.382,-0.356C0.403,-0.363 0.421,-0.374 0.435,-0.387C0.449,-0.4 0.46,-0.416 0.468,-0.434C0.475,-0.452 0.479,-0.472 0.479,-0.495C0.479,-0.54 0.464,-0.576 0.436,-0.602C0.408,-0.627 0.366,-0.64 0.309,-0.64L0.194,-0.64L0.194,-0.345Z" style="fill:white;fill-rule:nonzero;"/>
            </g>
            <g transform="matrix(212.771,0,0,212.771,1277.16,361.244)">
                <path d="M0.753,-0.358C0.753,-0.304 0.744,-0.255 0.727,-0.21C0.71,-0.165 0.686,-0.127 0.655,-0.095C0.624,-0.062 0.587,-0.037 0.543,-0.019C0.5,-0.001 0.452,0.008 0.399,0.008C0.346,0.008 0.298,-0.001 0.255,-0.019C0.212,-0.037 0.175,-0.062 0.144,-0.095C0.113,-0.127 0.089,-0.165 0.072,-0.21C0.055,-0.255 0.046,-0.304 0.046,-0.358C0.046,-0.412 0.055,-0.461 0.072,-0.506C0.089,-0.551 0.113,-0.589 0.144,-0.622C0.175,-0.654 0.212,-0.68 0.255,-0.698C0.298,-0.716 0.346,-0.725 0.399,-0.725C0.452,-0.725 0.5,-0.716 0.543,-0.698C0.587,-0.68 0.624,-0.654 0.655,-0.622C0.686,-0.589 0.71,-0.551 0.727,-0.506C0.744,-0.461 0.753,-0.412 0.753,-0.358ZM0.653,-0.358C0.653,-0.402 0.647,-0.442 0.635,-0.477C0.623,-0.511 0.606,-0.541 0.584,-0.565C0.562,-0.589 0.535,-0.608 0.504,-0.621C0.473,-0.634 0.438,-0.641 0.399,-0.641C0.361,-0.641 0.326,-0.634 0.295,-0.621C0.263,-0.608 0.236,-0.589 0.214,-0.565C0.192,-0.541 0.175,-0.511 0.163,-0.477C0.151,-0.442 0.145,-0.402 0.145,-0.358C0.145,-0.314 0.151,-0.275 0.163,-0.24C0.175,-0.205 0.192,-0.175 0.214,-0.151C0.236,-0.127 0.263,-0.109 0.295,-0.096C0.326,-0.083 0.361,-0.077 0.399,-0.077C0.438,-0.077 0.473,-0.083 0.504,-0.096C0.535,-0.109 0.562,-0.127 0.584,-0.151C0.606,-0.175 0.623,-0.205 0.635,-0.24C0.647,-0.275 0.653,-0.314 0.653,-0.358Z" style="fill:white;fill-rule:nonzero;"/>
            </g>
            <g transform="matrix(212.771,0,0,212.771,1446.96,361.244)">
                <path d="M0.454,-0.605C0.451,-0.6 0.448,-0.596 0.445,-0.593C0.441,-0.591 0.437,-0.59 0.432,-0.59C0.426,-0.59 0.419,-0.592 0.412,-0.598C0.404,-0.604 0.395,-0.61 0.383,-0.617C0.372,-0.624 0.358,-0.63 0.342,-0.636C0.326,-0.641 0.306,-0.644 0.283,-0.644C0.261,-0.644 0.242,-0.641 0.226,-0.635C0.209,-0.629 0.195,-0.622 0.184,-0.612C0.173,-0.602 0.164,-0.59 0.159,-0.576C0.153,-0.563 0.15,-0.548 0.15,-0.533C0.15,-0.513 0.155,-0.496 0.165,-0.483C0.175,-0.47 0.188,-0.458 0.204,-0.449C0.22,-0.44 0.238,-0.432 0.259,-0.425C0.279,-0.418 0.3,-0.411 0.322,-0.404C0.343,-0.396 0.364,-0.388 0.385,-0.379C0.405,-0.37 0.424,-0.358 0.44,-0.344C0.456,-0.33 0.469,-0.313 0.479,-0.293C0.489,-0.272 0.494,-0.247 0.494,-0.218C0.494,-0.186 0.488,-0.157 0.478,-0.129C0.467,-0.102 0.451,-0.078 0.431,-0.058C0.41,-0.037 0.385,-0.021 0.355,-0.01C0.325,0.002 0.292,0.008 0.254,0.008C0.207,0.008 0.165,-0 0.127,-0.017C0.089,-0.034 0.056,-0.057 0.029,-0.086L0.057,-0.132C0.06,-0.135 0.063,-0.138 0.067,-0.141C0.071,-0.143 0.075,-0.145 0.08,-0.145C0.087,-0.145 0.094,-0.141 0.104,-0.133C0.113,-0.126 0.124,-0.117 0.137,-0.109C0.151,-0.099 0.167,-0.091 0.186,-0.084C0.205,-0.076 0.229,-0.073 0.257,-0.073C0.28,-0.073 0.3,-0.076 0.318,-0.082C0.336,-0.088 0.351,-0.097 0.364,-0.109C0.376,-0.12 0.386,-0.134 0.393,-0.15C0.399,-0.166 0.403,-0.184 0.403,-0.204C0.403,-0.225 0.398,-0.243 0.388,-0.257C0.378,-0.271 0.365,-0.282 0.349,-0.292C0.333,-0.301 0.315,-0.309 0.294,-0.315C0.274,-0.322 0.253,-0.328 0.231,-0.335C0.21,-0.342 0.189,-0.35 0.168,-0.359C0.148,-0.368 0.13,-0.38 0.114,-0.394C0.097,-0.408 0.085,-0.426 0.075,-0.448C0.065,-0.469 0.06,-0.496 0.06,-0.528C0.06,-0.553 0.065,-0.577 0.075,-0.601C0.085,-0.625 0.099,-0.646 0.118,-0.664C0.136,-0.682 0.159,-0.697 0.187,-0.708C0.214,-0.719 0.246,-0.725 0.282,-0.725C0.322,-0.725 0.358,-0.718 0.391,-0.706C0.424,-0.693 0.453,-0.675 0.478,-0.651L0.454,-0.605Z" style="fill:white;fill-rule:nonzero;"/>
            </g>
            <g transform="matrix(212.771,0,0,212.771,1559.72,361.244)">
                <path d="M0.575,-0.717L0.575,-0.635L0.344,-0.635L0.344,-0L0.247,-0L0.247,-0.635L0.014,-0.635L0.014,-0.717L0.575,-0.717Z" style="fill:white;fill-rule:nonzero;"/>
            </g>
            <g transform="matrix(212.771,0,0,212.771,1685.26,361.244)">
                <path d="M0.194,-0.403L0.23,-0.403C0.243,-0.403 0.253,-0.404 0.26,-0.407C0.268,-0.41 0.275,-0.416 0.282,-0.424L0.52,-0.694C0.527,-0.702 0.534,-0.708 0.541,-0.711C0.548,-0.715 0.557,-0.717 0.568,-0.717L0.65,-0.717L0.377,-0.408C0.37,-0.4 0.363,-0.394 0.357,-0.389C0.351,-0.383 0.345,-0.379 0.338,-0.376C0.347,-0.373 0.355,-0.368 0.362,-0.362C0.369,-0.356 0.376,-0.349 0.384,-0.34L0.669,-0L0.585,-0C0.579,-0 0.573,-0.001 0.569,-0.002C0.565,-0.003 0.561,-0.004 0.558,-0.006C0.555,-0.007 0.552,-0.009 0.549,-0.012C0.546,-0.015 0.544,-0.018 0.541,-0.021L0.294,-0.305C0.29,-0.309 0.286,-0.312 0.283,-0.315C0.28,-0.318 0.276,-0.321 0.272,-0.323C0.268,-0.325 0.263,-0.326 0.258,-0.327C0.252,-0.328 0.246,-0.328 0.238,-0.328L0.194,-0.328L0.194,-0L0.097,-0L0.097,-0.717L0.194,-0.717L0.194,-0.403Z" style="fill:white;fill-rule:nonzero;"/>
            </g>
            <g transform="matrix(212.771,0,0,212.771,1826.96,361.244)">
                <path d="M0.753,-0.358C0.753,-0.304 0.744,-0.255 0.727,-0.21C0.71,-0.165 0.686,-0.127 0.655,-0.095C0.624,-0.062 0.587,-0.037 0.543,-0.019C0.5,-0.001 0.452,0.008 0.399,0.008C0.346,0.008 0.298,-0.001 0.255,-0.019C0.212,-0.037 0.175,-0.062 0.144,-0.095C0.113,-0.127 0.089,-0.165 0.072,-0.21C0.055,-0.255 0.046,-0.304 0.046,-0.358C0.046,-0.412 0.055,-0.461 0.072,-0.506C0.089,-0.551 0.113,-0.589 0.144,-0.622C0.175,-0.654 0.212,-0.68 0.255,-0.698C0.298,-0.716 0.346,-0.725 0.399,-0.725C0.452,-0.725 0.5,-0.716 0.543,-0.698C0.587,-0.68 0.624,-0.654 0.655,-0.622C0.686,-0.589 0.71,-0.551 0.727,-0.506C0.744,-0.461 0.753,-0.412 0.753,-0.358ZM0.653,-0.358C0.653,-0.402 0.647,-0.442 0.635,-0.477C0.623,-0.511 0.606,-0.541 0.584,-0.565C0.562,-0.589 0.535,-0.608 0.504,-0.621C0.473,-0.634 0.438,-0.641 0.399,-0.641C0.361,-0.641 0.326,-0.634 0.295,-0.621C0.263,-0.608 0.236,-0.589 0.214,-0.565C0.192,-0.541 0.175,-0.511 0.163,-0.477C0.151,-0.442 0.145,-0.402 0.145,-0.358C0.145,-0.314 0.151,-0.275 0.163,-0.24C0.175,-0.205 0.192,-0.175 0.214,-0.151C0.236,-0.127 0.263,-0.109 0.295,-0.096C0.326,-0.083 0.361,-0.077 0.399,-0.077C0.438,-0.077 0.473,-0.083 0.504,-0.096C0.535,-0.109 0.562,-0.127 0.584,-0.151C0.606,-0.175 0.623,-0.205 0.635,-0.24C0.647,-0.275 0.653,-0.314 0.653,-0.358Z" style="fill:white;fill-rule:nonzero;"/>
            </g>
            <g transform="matrix(212.771,0,0,212.771,1996.75,361.244)">
                <path d="M0.194,-0.299L0.194,-0L0.097,-0L0.097,-0.717L0.3,-0.717C0.345,-0.717 0.384,-0.712 0.417,-0.703C0.45,-0.694 0.477,-0.68 0.499,-0.663C0.52,-0.646 0.536,-0.625 0.547,-0.6C0.557,-0.576 0.562,-0.548 0.562,-0.518C0.562,-0.493 0.558,-0.469 0.55,-0.447C0.542,-0.425 0.53,-0.405 0.515,-0.388C0.5,-0.37 0.482,-0.355 0.46,-0.343C0.438,-0.331 0.413,-0.321 0.386,-0.315C0.398,-0.308 0.408,-0.298 0.418,-0.285L0.627,-0L0.541,-0C0.523,-0 0.51,-0.007 0.502,-0.021L0.316,-0.277C0.31,-0.284 0.304,-0.29 0.297,-0.294C0.29,-0.297 0.28,-0.299 0.267,-0.299L0.194,-0.299ZM0.194,-0.37L0.295,-0.37C0.323,-0.37 0.348,-0.373 0.37,-0.38C0.391,-0.387 0.409,-0.396 0.424,-0.409C0.438,-0.421 0.449,-0.436 0.457,-0.454C0.464,-0.471 0.468,-0.49 0.468,-0.511C0.468,-0.554 0.453,-0.586 0.425,-0.608C0.397,-0.629 0.355,-0.64 0.3,-0.64L0.194,-0.64L0.194,-0.37Z" style="fill:white;fill-rule:nonzero;"/>
            </g>
            <g transform="matrix(212.771,0,0,212.771,2133.78,361.244)">
                <path d="M0.087,-0L0.087,-0.717L0.316,-0.717C0.36,-0.717 0.397,-0.712 0.429,-0.704C0.461,-0.695 0.487,-0.683 0.508,-0.667C0.528,-0.651 0.543,-0.631 0.553,-0.608C0.563,-0.585 0.568,-0.559 0.568,-0.53C0.568,-0.512 0.565,-0.495 0.56,-0.479C0.554,-0.462 0.546,-0.447 0.535,-0.433C0.524,-0.419 0.51,-0.407 0.493,-0.396C0.476,-0.385 0.456,-0.376 0.434,-0.369C0.486,-0.358 0.525,-0.339 0.552,-0.312C0.579,-0.285 0.592,-0.249 0.592,-0.204C0.592,-0.174 0.586,-0.146 0.575,-0.121C0.564,-0.096 0.548,-0.075 0.526,-0.057C0.505,-0.039 0.478,-0.025 0.447,-0.015C0.416,-0.005 0.381,-0 0.341,-0L0.087,-0ZM0.184,-0.327L0.184,-0.077L0.339,-0.077C0.367,-0.077 0.39,-0.08 0.41,-0.087C0.43,-0.093 0.446,-0.102 0.459,-0.113C0.472,-0.125 0.482,-0.138 0.488,-0.154C0.494,-0.17 0.497,-0.188 0.497,-0.207C0.497,-0.244 0.483,-0.273 0.457,-0.294C0.431,-0.316 0.392,-0.327 0.339,-0.327L0.184,-0.327ZM0.184,-0.396L0.312,-0.396C0.339,-0.396 0.363,-0.399 0.383,-0.405C0.403,-0.411 0.42,-0.419 0.433,-0.43C0.446,-0.44 0.456,-0.453 0.462,-0.468C0.468,-0.483 0.472,-0.5 0.472,-0.518C0.472,-0.56 0.459,-0.591 0.434,-0.611C0.408,-0.63 0.369,-0.64 0.316,-0.64L0.184,-0.64L0.184,-0.396Z" style="fill:white;fill-rule:nonzero;"/>
            </g>
        </g>
        <g transform="matrix(0.526888,0,0,0.526888,-415.529,51.886)">
            <g transform="matrix(212.771,0,0,212.771,1147.16,361.244)">
                <path d="M0.194,-0.268L0.194,-0L0.097,-0L0.097,-0.717L0.309,-0.717C0.354,-0.717 0.393,-0.711 0.427,-0.701C0.46,-0.69 0.488,-0.675 0.51,-0.656C0.532,-0.637 0.548,-0.613 0.559,-0.586C0.57,-0.559 0.576,-0.528 0.576,-0.495C0.576,-0.461 0.57,-0.431 0.558,-0.403C0.546,-0.375 0.529,-0.352 0.507,-0.332C0.484,-0.312 0.456,-0.296 0.423,-0.285C0.39,-0.274 0.352,-0.268 0.309,-0.268L0.194,-0.268ZM0.194,-0.345L0.309,-0.345C0.336,-0.345 0.361,-0.349 0.382,-0.356C0.403,-0.363 0.421,-0.374 0.435,-0.387C0.449,-0.4 0.46,-0.416 0.468,-0.434C0.475,-0.452 0.479,-0.472 0.479,-0.495C0.479,-0.54 0.464,-0.576 0.436,-0.602C0.408,-0.627 0.366,-0.64 0.309,-0.64L0.194,-0.64L0.194,-0.345Z" style="fill:white;fill-rule:nonzero;"/>
            </g>
            <g transform="matrix(212.771,0,0,212.771,1262.48,361.244)">
                <path d="M0.677,-0L0.602,-0C0.593,-0 0.586,-0.002 0.581,-0.007C0.575,-0.011 0.571,-0.016 0.569,-0.023L0.502,-0.196L0.18,-0.196L0.113,-0.023C0.111,-0.017 0.107,-0.012 0.101,-0.007C0.095,-0.002 0.088,-0 0.08,-0L0.005,-0L0.292,-0.717L0.39,-0.717L0.677,-0ZM0.207,-0.266L0.475,-0.266L0.362,-0.558C0.355,-0.576 0.347,-0.598 0.341,-0.625C0.337,-0.611 0.333,-0.599 0.33,-0.587C0.326,-0.576 0.323,-0.566 0.32,-0.557L0.207,-0.266Z" style="fill:rgb(253,230,3);fill-rule:nonzero;"/>
            </g>
            <g transform="matrix(212.771,0,0,212.771,1407.17,361.244)">
                <path d="M0.137,-0.717C0.146,-0.717 0.152,-0.715 0.156,-0.713C0.16,-0.711 0.165,-0.707 0.171,-0.7L0.586,-0.16C0.584,-0.169 0.584,-0.177 0.584,-0.185C0.583,-0.193 0.583,-0.201 0.583,-0.209L0.583,-0.717L0.668,-0.717L0.668,-0L0.619,-0C0.611,-0 0.605,-0.001 0.6,-0.004C0.595,-0.007 0.59,-0.011 0.585,-0.018L0.17,-0.557C0.171,-0.549 0.171,-0.541 0.172,-0.533C0.172,-0.525 0.172,-0.517 0.172,-0.511L0.172,-0L0.087,-0L0.087,-0.717L0.137,-0.717Z" style="fill:white;fill-rule:nonzero;"/>
            </g>
            <g transform="matrix(212.771,0,0,212.771,1568.02,361.244)">
                <rect x="0.105" y="-0.717" width="0.097" height="0.717" style="fill:rgb(253,230,3);fill-rule:nonzero;"/>
            </g>
            <g transform="matrix(212.771,0,0,212.771,1633.34,361.244)">
                <path d="M0.592,-0.148C0.597,-0.148 0.602,-0.146 0.607,-0.142L0.645,-0.1C0.615,-0.066 0.58,-0.04 0.538,-0.021C0.496,-0.002 0.446,0.008 0.387,0.008C0.335,0.008 0.288,-0.001 0.246,-0.019C0.204,-0.037 0.168,-0.062 0.139,-0.094C0.109,-0.126 0.086,-0.165 0.07,-0.21C0.053,-0.255 0.045,-0.304 0.045,-0.358C0.045,-0.412 0.054,-0.462 0.071,-0.507C0.089,-0.552 0.113,-0.59 0.145,-0.623C0.177,-0.655 0.215,-0.68 0.259,-0.698C0.303,-0.716 0.352,-0.725 0.405,-0.725C0.458,-0.725 0.503,-0.716 0.541,-0.7C0.579,-0.684 0.613,-0.662 0.643,-0.634L0.612,-0.589C0.609,-0.586 0.607,-0.583 0.604,-0.581C0.6,-0.579 0.596,-0.578 0.591,-0.578C0.586,-0.578 0.582,-0.579 0.577,-0.582C0.572,-0.585 0.566,-0.589 0.56,-0.594C0.553,-0.599 0.545,-0.604 0.536,-0.609C0.527,-0.614 0.516,-0.619 0.504,-0.624C0.492,-0.629 0.477,-0.633 0.461,-0.636C0.445,-0.639 0.426,-0.641 0.405,-0.641C0.366,-0.641 0.331,-0.634 0.299,-0.621C0.267,-0.608 0.24,-0.589 0.217,-0.565C0.194,-0.54 0.176,-0.511 0.163,-0.476C0.15,-0.44 0.144,-0.401 0.144,-0.358C0.144,-0.313 0.15,-0.274 0.163,-0.239C0.176,-0.204 0.194,-0.174 0.216,-0.15C0.238,-0.126 0.264,-0.107 0.295,-0.095C0.325,-0.082 0.358,-0.076 0.393,-0.076C0.414,-0.076 0.433,-0.077 0.45,-0.079C0.467,-0.082 0.483,-0.086 0.497,-0.091C0.512,-0.096 0.525,-0.103 0.538,-0.111C0.55,-0.119 0.563,-0.129 0.576,-0.141C0.581,-0.146 0.587,-0.148 0.592,-0.148Z" style="fill:white;fill-rule:nonzero;"/>
            </g>
        </g>
    </g>
</svg>
